<svg width="64" height="14" viewBox="0 0 64 14" fill="none" xmlns="http://www.w3.org/2000/svg">
<path d="M3.825 5.50001V8.13001L1.435 5.50001H0.214996V9.00001H1.115V6.37501L3.5 9.00001H4.725V5.50001H3.825Z" fill="#BE1E2D"/>
<path d="M8.82711 6.21501V5.50001H5.12711V9.00001H8.82711V8.28501H6.02711V7.57501H8.82711V6.92501H6.02711V6.21501H8.82711Z" fill="#BE1E2D"/>
<path d="M15.3477 5.50001L14.3177 8.25501L13.2177 5.50001H12.1127L11.0177 8.25001L9.98265 5.50001H9.01265L10.3927 9.00001H11.6327L12.6677 6.36501L13.6977 9.00001H14.9427L16.3227 5.50001H15.3477Z" fill="#BE1E2D"/>
<path d="M21.5294 5.50001H18.9894V9.00001H21.5294C22.4344 9.00001 23.2294 8.44001 23.2294 7.25001C23.2294 6.06001 22.4344 5.50001 21.5294 5.50001ZM21.1894 8.24501H19.8894V6.25501H21.1894C21.8694 6.25501 22.3294 6.40001 22.3294 7.25001C22.3294 8.10001 21.8694 8.24501 21.1894 8.24501Z" fill="#BE1E2D"/>
<path d="M27.6448 6.78501C27.6448 6.00501 27.0998 5.50001 26.3048 5.50001H23.5548V9.00001H24.4548V8.06501H25.9048L26.4698 9.00001H27.5298L26.8848 7.96001C27.3548 7.77501 27.6448 7.35501 27.6448 6.78501ZM24.4548 6.25501H26.0548C26.3248 6.25501 26.7448 6.25501 26.7448 6.78501C26.7448 7.31001 26.3248 7.31001 26.0548 7.31001H24.4548V6.25501Z" fill="#BE1E2D"/>
<path d="M30.0896 9.05001C31.6246 9.05001 32.2896 8.40501 32.2896 7.24501C32.2896 6.09001 31.6246 5.45001 30.0896 5.45001C28.5496 5.45001 27.8896 6.08501 27.8896 7.24501C27.8896 8.41001 28.5496 9.05001 30.0896 9.05001ZM30.0896 8.29501C29.1546 8.29501 28.7896 7.96501 28.7896 7.24501C28.7896 6.53001 29.1496 6.20501 30.0896 6.20501C31.0296 6.20501 31.3896 6.53501 31.3896 7.24501C31.3896 7.96001 31.0246 8.29501 30.0896 8.29501Z" fill="#BE1E2D"/>
<path d="M35.3673 5.50001H32.6173V9.00001H33.5173V8.06501H35.3673C36.1623 8.06501 36.7073 7.56501 36.7073 6.78501C36.7073 6.00501 36.1623 5.50001 35.3673 5.50001ZM35.1173 7.31001H33.5173V6.25501H35.1173C35.3873 6.25501 35.8073 6.25501 35.8073 6.78501C35.8073 7.31001 35.3873 7.31001 35.1173 7.31001Z" fill="#BE1E2D"/>
</svg>
